# xmcd CD database file
#
# Track frame offsets:
#	180
#	6937
#	24015
#	38283
#	50499
#	64123
#	84589
#	108286
#	130850
#	145598
#	164426
#	181413
#	195745
#	208833
#	226252
#	247758
#	279640
#
# Disc length: 3771 seconds
#
# Revision: 0
# Processed by: cddbd v1.5.1PL2 Copyright (c) Steve Scherf et al.
# Submitted via: Feurio! 1.68 - http://www.feurio.com
#
DISCID=d90eb911
DTITLE=Berlin Blues Brothers - Live !   ... with Marie
DYEAR=1995
DGENRE=Blues
TTITLE0=Can't Turn You Loose  ( Opening )
TTITLE1=Everybody Needs Somebody To Love
TTITLE2=Hey Bartender
TTITLE3=Almost
TTITLE4=Ain't Got You
TTITLE5=Jailhouse Rock
TTITLE6=Shotgun Blues
TTITLE7=Ruby Red
TTITLE8=Soulman
TTITLE9=Flíp, Flop, Fly
TTITLE10=Peter Gunn
TTITLE11=With Marie
TTITLE12=Do You Love Me
TTITLE13=Gimme Some Lovin'
TTITLE14=Minnie The Moocher
TTITLE15=Sweet Home Chicago
TTITLE16=Can't Turn You Loose  ( Closing )
EXTD=
EXTT0=
EXTT1=
EXTT2=
EXTT3=
EXTT4=
EXTT5=
EXTT6=
EXTT7=
EXTT8=
EXTT9=
EXTT10=
EXTT11=
EXTT12=
EXTT13=
EXTT14=
EXTT15=
EXTT16=
PLAYORDER=
